<svg width="24" height="24" viewBox="0 0 24 24" fill="none" xmlns="http://www.w3.org/2000/svg">
<g clip-path="url(#clip0_176_2620)">
<path d="M23.5 12C23.5 17.6847 19.3747 22.4061 13.954 23.3339V16.167H16.7H17.1166L17.1918 15.7572L17.4788 14.1933L17.4788 14.1932L17.8648 12.0903L17.9731 11.5H17.373H13.954V10.703C13.954 9.98598 14.066 9.51906 14.2538 9.21301C14.3694 9.02587 14.5346 8.87453 14.7312 8.77591L14.7312 8.77592L14.7349 8.77405C15.0498 8.6128 15.5108 8.52 16.182 8.52L16.1827 8.52C16.4225 8.51966 16.6623 8.52261 16.902 8.52883L16.902 8.52885L16.9064 8.52893C17.1118 8.53245 17.317 8.54376 17.5216 8.56284L18.068 8.61381V8.065V4.74V4.34598L17.6849 4.25386C17.289 4.15865 16.8872 4.08989 16.4822 4.04804C15.9597 3.98603 15.3861 3.942 14.959 3.942C12.8843 3.942 11.2635 4.43134 10.169 5.54934C9.07657 6.66513 8.601 8.31283 8.601 10.42V11.5H6.627H6.127V12V15.667V16.167H6.627H8.601V22.9891C3.90862 21.5393 0.5 17.1677 0.5 12C0.5 5.64914 5.64914 0.5 12 0.5C18.3509 0.5 23.5 5.64914 23.5 12Z" stroke="#1100EE"/>
</g>
<defs>
<clipPath id="clip0_176_2620">
<rect width="24" height="24" fill="white"/>
</clipPath>
</defs>
</svg>
