<svg width="24" height="24" viewBox="0 0 24 24" fill="none" xmlns="http://www.w3.org/2000/svg">
<g clip-path="url(#clip0_176_2623)">
<path d="M12.48 0.5C15.756 0.5 18.1494 1.70203 19.975 3.34486L18.3686 4.95132C16.9278 3.71783 15.0102 2.793 12.48 2.793C7.36785 2.793 3.38001 6.91896 3.38001 12.013C3.38001 17.107 7.36785 21.233 12.48 21.233C15.7623 21.233 17.6691 19.904 18.8866 18.6866L18.8888 18.6843C19.9188 17.6411 20.5657 16.1822 20.8158 14.2647L20.8895 13.7H20.32H12.98V11.42H23.0983C23.1625 11.8788 23.193 12.4054 23.193 12.973C23.193 15.3537 22.5307 18.2552 20.4995 20.2864L20.4994 20.2864L20.4928 20.2932C18.4877 22.3754 15.927 23.5 12.48 23.5C6.13381 23.5 0.807007 18.3276 0.807007 12C0.807007 5.67238 6.13381 0.5 12.48 0.5Z" stroke="#1100EE"/>
</g>
<defs>
<clipPath id="clip0_176_2623">
<rect width="24" height="24" fill="white"/>
</clipPath>
</defs>
</svg>
